<mxfile host="app.diagrams.net" modified="2022-06-26T08:10:51.730Z" agent="5.0 (Windows)" etag="X5jhWGwNVHWVImA53aF_" version="20.0.3" type="github">
  <diagram id="C5RBs43oDa-KdzZeNtuy" name="Page-1">
    <mxGraphModel dx="1182" dy="535" grid="1" gridSize="10" guides="1" tooltips="1" connect="1" arrows="1" fold="1" page="1" pageScale="1" pageWidth="827" pageHeight="1169" math="0" shadow="0">
      <root>
        <mxCell id="WIyWlLk6GJQsqaUBKTNV-0" />
        <mxCell id="WIyWlLk6GJQsqaUBKTNV-1" parent="WIyWlLk6GJQsqaUBKTNV-0" />
        <mxCell id="9BtPxe3HpGPeyMn6ALsc-2" value="" style="edgeStyle=orthogonalEdgeStyle;rounded=0;orthogonalLoop=1;jettySize=auto;html=1;" edge="1" parent="WIyWlLk6GJQsqaUBKTNV-1" source="9BtPxe3HpGPeyMn6ALsc-0" target="9BtPxe3HpGPeyMn6ALsc-1">
          <mxGeometry relative="1" as="geometry" />
        </mxCell>
        <mxCell id="9BtPxe3HpGPeyMn6ALsc-0" value="On Save Game" style="rounded=1;whiteSpace=wrap;html=1;" vertex="1" parent="WIyWlLk6GJQsqaUBKTNV-1">
          <mxGeometry x="20" y="40" width="120" height="30" as="geometry" />
        </mxCell>
        <mxCell id="9BtPxe3HpGPeyMn6ALsc-35" style="edgeStyle=orthogonalEdgeStyle;rounded=0;orthogonalLoop=1;jettySize=auto;html=1;entryX=0.5;entryY=0;entryDx=0;entryDy=0;" edge="1" parent="WIyWlLk6GJQsqaUBKTNV-1" source="9BtPxe3HpGPeyMn6ALsc-1" target="9BtPxe3HpGPeyMn6ALsc-12">
          <mxGeometry relative="1" as="geometry" />
        </mxCell>
        <mxCell id="9BtPxe3HpGPeyMn6ALsc-1" value="Get save state information as JSON" style="whiteSpace=wrap;html=1;rounded=1;" vertex="1" parent="WIyWlLk6GJQsqaUBKTNV-1">
          <mxGeometry x="20" y="135" width="120" height="35" as="geometry" />
        </mxCell>
        <mxCell id="9BtPxe3HpGPeyMn6ALsc-7" value="Saved Successfully" style="whiteSpace=wrap;html=1;rounded=1;" vertex="1" parent="WIyWlLk6GJQsqaUBKTNV-1">
          <mxGeometry x="160" y="530" width="120" height="40" as="geometry" />
        </mxCell>
        <mxCell id="9BtPxe3HpGPeyMn6ALsc-10" value="Error is printed to the console" style="whiteSpace=wrap;html=1;rounded=1;" vertex="1" parent="WIyWlLk6GJQsqaUBKTNV-1">
          <mxGeometry x="20" y="490" width="120" height="40" as="geometry" />
        </mxCell>
        <mxCell id="9BtPxe3HpGPeyMn6ALsc-14" style="edgeStyle=orthogonalEdgeStyle;rounded=0;orthogonalLoop=1;jettySize=auto;html=1;entryX=0.5;entryY=0;entryDx=0;entryDy=0;" edge="1" parent="WIyWlLk6GJQsqaUBKTNV-1" source="9BtPxe3HpGPeyMn6ALsc-12" target="9BtPxe3HpGPeyMn6ALsc-7">
          <mxGeometry relative="1" as="geometry">
            <Array as="points">
              <mxPoint x="190" y="290" />
              <mxPoint x="190" y="460" />
              <mxPoint x="220" y="460" />
            </Array>
          </mxGeometry>
        </mxCell>
        <mxCell id="9BtPxe3HpGPeyMn6ALsc-15" style="edgeStyle=orthogonalEdgeStyle;rounded=0;orthogonalLoop=1;jettySize=auto;html=1;entryX=0.5;entryY=0;entryDx=0;entryDy=0;" edge="1" parent="WIyWlLk6GJQsqaUBKTNV-1" source="9BtPxe3HpGPeyMn6ALsc-12" target="9BtPxe3HpGPeyMn6ALsc-10">
          <mxGeometry relative="1" as="geometry">
            <Array as="points">
              <mxPoint x="80" y="390" />
              <mxPoint x="80" y="390" />
            </Array>
          </mxGeometry>
        </mxCell>
        <mxCell id="9BtPxe3HpGPeyMn6ALsc-19" style="edgeStyle=orthogonalEdgeStyle;rounded=0;orthogonalLoop=1;jettySize=auto;html=1;exitX=1;exitY=0.5;exitDx=0;exitDy=0;" edge="1" parent="WIyWlLk6GJQsqaUBKTNV-1" source="9BtPxe3HpGPeyMn6ALsc-12" target="9BtPxe3HpGPeyMn6ALsc-20">
          <mxGeometry relative="1" as="geometry">
            <mxPoint x="480" y="380" as="targetPoint" />
            <Array as="points">
              <mxPoint x="190" y="290" />
              <mxPoint x="190" y="460" />
              <mxPoint x="730" y="460" />
            </Array>
          </mxGeometry>
        </mxCell>
        <mxCell id="9BtPxe3HpGPeyMn6ALsc-12" value="&lt;div&gt;Make a HTTP &lt;br&gt;&lt;/div&gt;&lt;div&gt;PATCH request to Firebase server&lt;/div&gt;" style="rhombus;whiteSpace=wrap;html=1;rounded=1;" vertex="1" parent="WIyWlLk6GJQsqaUBKTNV-1">
          <mxGeometry x="20" y="230" width="120" height="120" as="geometry" />
        </mxCell>
        <mxCell id="9BtPxe3HpGPeyMn6ALsc-16" value="OK" style="text;html=1;strokeColor=none;fillColor=none;align=center;verticalAlign=middle;whiteSpace=wrap;rounded=0;rotation=0;" vertex="1" parent="WIyWlLk6GJQsqaUBKTNV-1">
          <mxGeometry x="190" y="440" width="60" height="20" as="geometry" />
        </mxCell>
        <mxCell id="9BtPxe3HpGPeyMn6ALsc-17" value="error" style="text;html=1;strokeColor=none;fillColor=none;align=center;verticalAlign=middle;whiteSpace=wrap;rounded=0;" vertex="1" parent="WIyWlLk6GJQsqaUBKTNV-1">
          <mxGeometry x="80" y="420" width="40" height="20" as="geometry" />
        </mxCell>
        <mxCell id="9BtPxe3HpGPeyMn6ALsc-24" value="" style="edgeStyle=orthogonalEdgeStyle;rounded=0;orthogonalLoop=1;jettySize=auto;html=1;" edge="1" parent="WIyWlLk6GJQsqaUBKTNV-1" source="9BtPxe3HpGPeyMn6ALsc-20" target="9BtPxe3HpGPeyMn6ALsc-23">
          <mxGeometry relative="1" as="geometry" />
        </mxCell>
        <mxCell id="9BtPxe3HpGPeyMn6ALsc-20" value="Documents updated in Firebase" style="rounded=1;whiteSpace=wrap;html=1;" vertex="1" parent="WIyWlLk6GJQsqaUBKTNV-1">
          <mxGeometry x="670" y="400" width="120" height="40" as="geometry" />
        </mxCell>
        <mxCell id="9BtPxe3HpGPeyMn6ALsc-34" value="" style="edgeStyle=orthogonalEdgeStyle;rounded=0;orthogonalLoop=1;jettySize=auto;html=1;" edge="1" parent="WIyWlLk6GJQsqaUBKTNV-1" source="9BtPxe3HpGPeyMn6ALsc-23" target="9BtPxe3HpGPeyMn6ALsc-33">
          <mxGeometry relative="1" as="geometry">
            <Array as="points">
              <mxPoint x="640" y="315" />
              <mxPoint x="640" y="255" />
            </Array>
          </mxGeometry>
        </mxCell>
        <mxCell id="9BtPxe3HpGPeyMn6ALsc-39" value="" style="edgeStyle=orthogonalEdgeStyle;rounded=0;orthogonalLoop=1;jettySize=auto;html=1;" edge="1" parent="WIyWlLk6GJQsqaUBKTNV-1" source="9BtPxe3HpGPeyMn6ALsc-23" target="9BtPxe3HpGPeyMn6ALsc-38">
          <mxGeometry relative="1" as="geometry" />
        </mxCell>
        <mxCell id="9BtPxe3HpGPeyMn6ALsc-23" value="Documents" style="whiteSpace=wrap;html=1;rounded=1;" vertex="1" parent="WIyWlLk6GJQsqaUBKTNV-1">
          <mxGeometry x="670" y="300" width="120" height="30" as="geometry" />
        </mxCell>
        <mxCell id="9BtPxe3HpGPeyMn6ALsc-25" value="" style="endArrow=none;dashed=1;html=1;dashPattern=1 3;strokeWidth=2;rounded=0;" edge="1" parent="WIyWlLk6GJQsqaUBKTNV-1">
          <mxGeometry width="50" height="50" relative="1" as="geometry">
            <mxPoint x="640" y="530" as="sourcePoint" />
            <mxPoint x="640" y="20" as="targetPoint" />
          </mxGeometry>
        </mxCell>
        <mxCell id="9BtPxe3HpGPeyMn6ALsc-30" value="" style="edgeStyle=orthogonalEdgeStyle;rounded=0;orthogonalLoop=1;jettySize=auto;html=1;" edge="1" parent="WIyWlLk6GJQsqaUBKTNV-1" source="9BtPxe3HpGPeyMn6ALsc-26" target="9BtPxe3HpGPeyMn6ALsc-29">
          <mxGeometry relative="1" as="geometry" />
        </mxCell>
        <mxCell id="9BtPxe3HpGPeyMn6ALsc-26" value="On Load Game (UserProfile.gd)" style="rounded=1;whiteSpace=wrap;html=1;" vertex="1" parent="WIyWlLk6GJQsqaUBKTNV-1">
          <mxGeometry x="340" y="40" width="120" height="45" as="geometry" />
        </mxCell>
        <mxCell id="9BtPxe3HpGPeyMn6ALsc-31" style="edgeStyle=orthogonalEdgeStyle;rounded=0;orthogonalLoop=1;jettySize=auto;html=1;entryX=0.5;entryY=0;entryDx=0;entryDy=0;" edge="1" parent="WIyWlLk6GJQsqaUBKTNV-1" source="9BtPxe3HpGPeyMn6ALsc-29" target="9BtPxe3HpGPeyMn6ALsc-23">
          <mxGeometry relative="1" as="geometry" />
        </mxCell>
        <mxCell id="9BtPxe3HpGPeyMn6ALsc-29" value="&lt;div&gt;Make a HTTP &lt;br&gt;&lt;/div&gt;&lt;div&gt;GET request to Firebase server&lt;/div&gt;" style="rhombus;whiteSpace=wrap;html=1;rounded=1;" vertex="1" parent="WIyWlLk6GJQsqaUBKTNV-1">
          <mxGeometry x="341.25" y="112.5" width="117.5" height="117.5" as="geometry" />
        </mxCell>
        <mxCell id="9BtPxe3HpGPeyMn6ALsc-44" value="" style="edgeStyle=orthogonalEdgeStyle;rounded=0;orthogonalLoop=1;jettySize=auto;html=1;" edge="1" parent="WIyWlLk6GJQsqaUBKTNV-1" source="9BtPxe3HpGPeyMn6ALsc-33" target="9BtPxe3HpGPeyMn6ALsc-43">
          <mxGeometry relative="1" as="geometry" />
        </mxCell>
        <mxCell id="9BtPxe3HpGPeyMn6ALsc-33" value="Information Loaded" style="whiteSpace=wrap;html=1;rounded=1;" vertex="1" parent="WIyWlLk6GJQsqaUBKTNV-1">
          <mxGeometry x="341.25" y="240" width="120" height="30" as="geometry" />
        </mxCell>
        <mxCell id="9BtPxe3HpGPeyMn6ALsc-47" value="" style="edgeStyle=orthogonalEdgeStyle;rounded=0;orthogonalLoop=1;jettySize=auto;html=1;" edge="1" parent="WIyWlLk6GJQsqaUBKTNV-1" source="9BtPxe3HpGPeyMn6ALsc-38" target="9BtPxe3HpGPeyMn6ALsc-46">
          <mxGeometry relative="1" as="geometry" />
        </mxCell>
        <mxCell id="9BtPxe3HpGPeyMn6ALsc-38" value="New Profile" style="whiteSpace=wrap;html=1;rounded=1;" vertex="1" parent="WIyWlLk6GJQsqaUBKTNV-1">
          <mxGeometry x="341.25" y="302.5" width="120" height="25" as="geometry" />
        </mxCell>
        <mxCell id="9BtPxe3HpGPeyMn6ALsc-40" value="OK" style="text;html=1;strokeColor=none;fillColor=none;align=center;verticalAlign=middle;whiteSpace=wrap;rounded=0;" vertex="1" parent="WIyWlLk6GJQsqaUBKTNV-1">
          <mxGeometry x="520" y="230" width="60" height="20" as="geometry" />
        </mxCell>
        <mxCell id="9BtPxe3HpGPeyMn6ALsc-41" value="NOT FOUND" style="text;html=1;strokeColor=none;fillColor=none;align=center;verticalAlign=middle;whiteSpace=wrap;rounded=0;" vertex="1" parent="WIyWlLk6GJQsqaUBKTNV-1">
          <mxGeometry x="520" y="290" width="60" height="20" as="geometry" />
        </mxCell>
        <mxCell id="9BtPxe3HpGPeyMn6ALsc-45" style="edgeStyle=orthogonalEdgeStyle;rounded=0;orthogonalLoop=1;jettySize=auto;html=1;entryX=1;entryY=0;entryDx=0;entryDy=0;" edge="1" parent="WIyWlLk6GJQsqaUBKTNV-1" source="9BtPxe3HpGPeyMn6ALsc-43" target="9BtPxe3HpGPeyMn6ALsc-12">
          <mxGeometry relative="1" as="geometry" />
        </mxCell>
        <mxCell id="9BtPxe3HpGPeyMn6ALsc-59" style="edgeStyle=orthogonalEdgeStyle;rounded=0;orthogonalLoop=1;jettySize=auto;html=1;entryX=0;entryY=0.5;entryDx=0;entryDy=0;" edge="1" parent="WIyWlLk6GJQsqaUBKTNV-1" source="9BtPxe3HpGPeyMn6ALsc-43" target="9BtPxe3HpGPeyMn6ALsc-57">
          <mxGeometry relative="1" as="geometry">
            <Array as="points">
              <mxPoint x="210" y="430" />
              <mxPoint x="390" y="430" />
              <mxPoint x="390" y="590" />
            </Array>
          </mxGeometry>
        </mxCell>
        <mxCell id="9BtPxe3HpGPeyMn6ALsc-43" value="Set saved values" style="whiteSpace=wrap;html=1;rounded=1;" vertex="1" parent="WIyWlLk6GJQsqaUBKTNV-1">
          <mxGeometry x="180" y="200" width="120" height="30" as="geometry" />
        </mxCell>
        <mxCell id="9BtPxe3HpGPeyMn6ALsc-49" value="" style="edgeStyle=orthogonalEdgeStyle;rounded=0;orthogonalLoop=1;jettySize=auto;html=1;" edge="1" parent="WIyWlLk6GJQsqaUBKTNV-1" source="9BtPxe3HpGPeyMn6ALsc-46" target="9BtPxe3HpGPeyMn6ALsc-48">
          <mxGeometry relative="1" as="geometry" />
        </mxCell>
        <mxCell id="9BtPxe3HpGPeyMn6ALsc-46" value="Get default values" style="whiteSpace=wrap;html=1;rounded=1;" vertex="1" parent="WIyWlLk6GJQsqaUBKTNV-1">
          <mxGeometry x="220" y="340" width="120" height="25" as="geometry" />
        </mxCell>
        <mxCell id="9BtPxe3HpGPeyMn6ALsc-53" value="" style="edgeStyle=orthogonalEdgeStyle;rounded=0;orthogonalLoop=1;jettySize=auto;html=1;" edge="1" parent="WIyWlLk6GJQsqaUBKTNV-1" source="9BtPxe3HpGPeyMn6ALsc-48" target="9BtPxe3HpGPeyMn6ALsc-52">
          <mxGeometry relative="1" as="geometry">
            <Array as="points">
              <mxPoint x="521" y="520" />
            </Array>
          </mxGeometry>
        </mxCell>
        <mxCell id="9BtPxe3HpGPeyMn6ALsc-58" value="" style="edgeStyle=orthogonalEdgeStyle;rounded=0;orthogonalLoop=1;jettySize=auto;html=1;" edge="1" parent="WIyWlLk6GJQsqaUBKTNV-1" source="9BtPxe3HpGPeyMn6ALsc-48" target="9BtPxe3HpGPeyMn6ALsc-57">
          <mxGeometry relative="1" as="geometry" />
        </mxCell>
        <mxCell id="9BtPxe3HpGPeyMn6ALsc-62" style="edgeStyle=orthogonalEdgeStyle;rounded=0;orthogonalLoop=1;jettySize=auto;html=1;" edge="1" parent="WIyWlLk6GJQsqaUBKTNV-1" source="9BtPxe3HpGPeyMn6ALsc-48">
          <mxGeometry relative="1" as="geometry">
            <mxPoint x="80" y="490" as="targetPoint" />
            <Array as="points">
              <mxPoint x="80" y="420" />
            </Array>
          </mxGeometry>
        </mxCell>
        <mxCell id="9BtPxe3HpGPeyMn6ALsc-48" value="&lt;div&gt;Make a HTTP&lt;/div&gt;&lt;div&gt;&amp;nbsp;POST request to Firebase server&lt;/div&gt;" style="rhombus;whiteSpace=wrap;html=1;rounded=1;" vertex="1" parent="WIyWlLk6GJQsqaUBKTNV-1">
          <mxGeometry x="461.25" y="330" width="120" height="120" as="geometry" />
        </mxCell>
        <mxCell id="9BtPxe3HpGPeyMn6ALsc-54" style="edgeStyle=orthogonalEdgeStyle;rounded=0;orthogonalLoop=1;jettySize=auto;html=1;entryX=1;entryY=0.5;entryDx=0;entryDy=0;" edge="1" parent="WIyWlLk6GJQsqaUBKTNV-1" source="9BtPxe3HpGPeyMn6ALsc-52" target="9BtPxe3HpGPeyMn6ALsc-23">
          <mxGeometry relative="1" as="geometry">
            <Array as="points">
              <mxPoint x="810" y="520" />
              <mxPoint x="810" y="315" />
            </Array>
          </mxGeometry>
        </mxCell>
        <mxCell id="9BtPxe3HpGPeyMn6ALsc-52" value="New document created" style="whiteSpace=wrap;html=1;rounded=1;" vertex="1" parent="WIyWlLk6GJQsqaUBKTNV-1">
          <mxGeometry x="670" y="500" width="120" height="40" as="geometry" />
        </mxCell>
        <mxCell id="9BtPxe3HpGPeyMn6ALsc-57" value="Game Loaded (Load.gd)" style="whiteSpace=wrap;html=1;rounded=1;" vertex="1" parent="WIyWlLk6GJQsqaUBKTNV-1">
          <mxGeometry x="461.25" y="570" width="120" height="40" as="geometry" />
        </mxCell>
        <mxCell id="9BtPxe3HpGPeyMn6ALsc-60" value="OK" style="text;html=1;strokeColor=none;fillColor=none;align=center;verticalAlign=middle;whiteSpace=wrap;rounded=0;rotation=0;" vertex="1" parent="WIyWlLk6GJQsqaUBKTNV-1">
          <mxGeometry x="521.25" y="500" width="60" height="20" as="geometry" />
        </mxCell>
      </root>
    </mxGraphModel>
  </diagram>
</mxfile>
